<svg width="296" height="78" viewBox="0 0 296 78" fill="none" xmlns="http://www.w3.org/2000/svg">
<path d="M26.8507 36V3.6H42.0157L56.2807 21.195H57.2707L56.6857 3.6H67.2157V36H55.8307L38.0557 14.49H37.1107L37.3807 36H26.8507ZM94.9856 36.9C80.7206 36.9 71.6306 29.295 71.6306 19.8C71.6306 10.26 80.7206 2.7 94.9856 2.7C109.251 2.7 118.341 10.26 118.341 19.8C118.341 29.295 109.251 36.9 94.9856 36.9ZM94.9856 28.53C101.646 28.53 105.876 24.885 105.876 19.8C105.876 14.625 101.646 11.07 94.9856 11.07C88.3256 11.07 84.0956 14.625 84.0956 19.8C84.0956 24.84 88.3256 28.53 94.9856 28.53ZM122.739 36V3.6H137.949L148.344 18.585H150.234L160.404 3.6H175.479V36H164.544L164.814 15.48H163.869L153.519 29.7H144.474L133.899 15.48H132.864L133.134 36H122.739ZM178.518 36V35.1L192.783 3.6H210.783L225.408 35.1V36H213.303L210.603 29.475H192.378L189.633 36H178.518ZM195.708 21.69H207.363L203.223 11.745H199.893L195.708 21.69ZM228.472 36V3.6H245.842C263.887 3.6 271.042 10.44 271.042 19.8C271.042 29.25 263.887 36 245.842 36H228.472ZM239.812 27.945H245.392C254.662 27.945 258.847 25.38 258.847 19.8C258.847 14.58 254.662 11.565 245.392 11.565H239.812V27.945Z" fill="#EF0302"/>
<path d="M14.0357 75V42.6H34.8257C45.1757 42.6 49.5407 46.2 49.5407 52.365C49.5407 58.71 45.1757 62.22 34.8257 62.22H20.3357V75H14.0357ZM20.3357 56.865H34.7807C40.7207 56.865 42.7007 55.425 42.7007 52.455C42.7007 49.485 40.7207 48.045 34.7807 48.045H20.3357V56.865ZM55.8277 75V42.6H76.6627C86.7877 42.6 91.3327 46.155 91.3327 52.005C91.3327 57.315 87.1927 60.735 79.2727 61.41L91.3777 74.37V75H83.6827L71.7127 61.545H62.1727V75H55.8277ZM62.1727 56.325H76.6177C82.1077 56.325 84.5377 54.795 84.5377 52.14C84.5377 49.44 82.1077 48.045 76.6177 48.045H62.1727V56.325ZM118.069 75.765C105.064 75.765 96.1094 68.655 96.1094 58.8C96.1094 48.945 105.064 41.835 118.069 41.835C131.074 41.835 140.029 48.945 140.029 58.8C140.029 68.61 131.029 75.765 118.069 75.765ZM118.069 70.14C127.204 70.14 133.189 65.64 133.189 58.8C133.189 51.96 127.204 47.46 118.069 47.46C108.889 47.46 102.904 51.96 102.904 58.8C102.904 65.64 108.889 70.14 118.069 70.14ZM147.102 75V42.6H155.742L170.322 61.455H171.087L185.442 42.6H194.082V75H187.692L187.827 49.935H187.332L173.022 68.34H168.072L153.672 49.935H153.222L153.312 75H147.102ZM223.055 75.765C210.05 75.765 201.095 68.655 201.095 58.8C201.095 48.945 210.05 41.835 223.055 41.835C236.06 41.835 245.015 48.945 245.015 58.8C245.015 68.61 236.015 75.765 223.055 75.765ZM223.055 70.14C232.19 70.14 238.175 65.64 238.175 58.8C238.175 51.96 232.19 47.46 223.055 47.46C213.875 47.46 207.89 51.96 207.89 58.8C207.89 65.64 213.875 70.14 223.055 70.14ZM267.792 75.72C261.447 75.72 254.652 74.145 250.107 71.67V65.73H250.827C255.462 68.475 261.852 70.185 268.017 70.185C274.227 70.185 277.872 68.835 277.872 66.18C277.872 64.38 276.207 63.21 270.537 62.22L262.257 60.78C253.842 59.295 250.287 56.37 250.287 51.6C250.287 45.525 256.272 41.88 266.397 41.88C272.247 41.88 278.412 43.275 282.867 45.48V51.33H282.147C277.602 48.855 271.437 47.37 266.217 47.37C260.412 47.37 256.857 48.495 256.857 51.15C256.857 53.04 258.477 54.03 263.742 54.975L272.022 56.46C281.022 58.035 284.532 60.96 284.532 65.685C284.532 71.805 278.637 75.72 267.792 75.72Z" fill="white"/>
</svg>
